<?xml version="1.0" encoding="UTF-8"?>
<svg width="231px" height="24px" viewBox="0 0 231 24" version="1.1" xmlns="http://www.w3.org/2000/svg" xmlns:xlink="http://www.w3.org/1999/xlink">
    <!-- Generator: Sketch 47.1 (45422) - http://www.bohemiancoding.com/sketch -->
    <title>outlandWhite</title>
    <desc>Created with Sketch.</desc>
    <defs></defs>
    <g id="Page-1" stroke="none" stroke-width="1" fill="none" fill-rule="evenodd">
        <g id="Desktop-HD-Copy" transform="translate(-100.000000, -45.000000)" fill-rule="nonzero" fill="#FFFFFF">
            <g id="outlandWhite" transform="translate(100.000000, 45.000000)">
                <polygon id="Shape" points="225.75 0 215.25 0 210 0 210 24 215.25 24 215.25 6 225.75 6 225.75 18 217.875 18 217.875 24 225.75 24 228.375 24 231 24 231 6 231 0"></polygon>
                <polygon id="Shape" points="178.25 0 173 0 173 6 173 24 178.25 24 178.25 6 188.75 6 188.75 24 194 24 194 6 194 3 194 0"></polygon>
                <path d="M156.375,4.73695157e-15 L140.625,4.73695157e-15 C139.175253,0 138,1.34314575 138,3 L138,21 C138,22.6568542 139.175253,24 140.625,24 L143.25,24 L143.25,18 L153.75,18 L153.75,24 L156.375,24 C157.824747,24 159,22.6568542 159,21 L159,3 C159,1.34314575 157.824747,5.21064673e-14 156.375,0 L156.375,4.73695157e-15 Z M153.75,12 L143.25,12 L143.25,6 L153.75,6 L153.75,12 Z" id="Shape"></path>
                <path d="M124.375,18 L111.25,18 L111.25,0 L108.625,0 C107.175253,-4.73695157e-15 106,1.34314575 106,3 L106,21 C106,22.6568542 107.175253,24 108.625,24 L124.375,24 C125.824747,24 127,22.6568542 127,21 L127,18 L124.375,18 Z" id="Shape"></path>
                <path d="M90.375,4.73695157e-15 L74.625,4.73695157e-15 C73.1752525,0 72,1.34314575 72,3 L72,6 L79.875,6 L79.875,24 L85.125,24 L85.125,6 L93,6 L93,3 C93,1.34314575 91.8247475,0 90.375,4.73695157e-15 Z" id="Shape"></path>
                <path d="M55.375,4.73695157e-15 L52.75,4.73695157e-15 L52.75,18 L42.25,18 L42.25,4.73695157e-15 L39.625,4.73695157e-15 C38.1752525,0 37,1.34314575 37,3 L37,21 C37,22.6568542 38.1752525,24 39.625,24 L55.375,24 C56.8247475,24 58,22.6568542 58,21 L58,3 C58,1.34314575 56.8247475,0 55.375,4.73695157e-15 Z" id="Shape"></path>
                <path d="M18.375,4.73695157e-15 L2.625,4.73695157e-15 C1.17525253,0 0,1.34314575 0,3 L0,21 C0,22.6568542 1.17525253,24 2.625,24 L18.375,24 C19.8247475,24 21,22.6568542 21,21 L21,3 C21,1.34314575 19.8247475,0 18.375,4.73695157e-15 Z M15.75,18 L5.25,18 L5.25,6 L15.75,6 L15.75,18 Z" id="Shape"></path>
            </g>
        </g>
    </g>
</svg>