<svg id="Layer_1" data-name="Layer 1" xmlns="http://www.w3.org/2000/svg" viewBox="0 0 783 72"><defs><style>.cls-1{fill:#fff;}</style></defs><title>outlandWhite</title><polygon class="cls-1" points="765 0 729 0 711 0 711 72 729 72 729 18 765 18 765 54 738 54 738 72 765 72 774 72 783 72 783 18 783 0 765 0"/><polygon class="cls-1" points="603 0 585 0 585 18 585 72 603 72 603 18 639 18 639 72 657 72 657 18 657 9 657 0 603 0"/><path class="cls-1" d="M676.24,111.91h-54a9,9,0,0,0-9,9v54a9,9,0,0,0,9,9h9v-18h36v18h9a9,9,0,0,0,9-9v-54A9,9,0,0,0,676.24,111.91Zm-9,36h-36v-18h36Z" transform="translate(-145.24 -111.91)"/><path class="cls-1" d="M568.24,165.91h-45v-54h-9a9,9,0,0,0-9,9v54a9,9,0,0,0,9,9h54a9,9,0,0,0,9-9v-9Z" transform="translate(-145.24 -111.91)"/><path class="cls-1" d="M451.24,111.91h-54a9,9,0,0,0-9,9v9h27v54h18v-54h27v-9A9,9,0,0,0,451.24,111.91Z" transform="translate(-145.24 -111.91)"/><path class="cls-1" d="M334.24,111.91h-9v54h-36v-54h-9a9,9,0,0,0-9,9v54a9,9,0,0,0,9,9h54a9,9,0,0,0,9-9v-54A9,9,0,0,0,334.24,111.91Z" transform="translate(-145.24 -111.91)"/><path class="cls-1" d="M208.24,111.91h-54a9,9,0,0,0-9,9v54a9,9,0,0,0,9,9h54a9,9,0,0,0,9-9v-54A9,9,0,0,0,208.24,111.91Zm-9,54h-36v-36h36Z" transform="translate(-145.24 -111.91)"/></svg>